<?xml version="1.0" encoding="utf-8"?>
<!-- Generator: Adobe Illustrator 26.0.1, SVG Export Plug-In . SVG Version: 6.00 Build 0)  -->
<svg version="1.1" id="Ebene_1" xmlns="http://www.w3.org/2000/svg" xmlns:xlink="http://www.w3.org/1999/xlink" x="0px" y="0px"
	 viewBox="0 0 400 155" style="enable-background:new 0 0 400 155;" xml:space="preserve">
<style type="text/css">
	.st0{fill:#494949;}
</style>
<path class="st0" d="M375,29.39l-2.65-2.08c-0.05,0.07-5.49,6.83-15.28,10.19c-0.72,0.25-1.44,0.58-2.15,0.88
	C349.79,30.36,340.86,25,330.67,25c-10.2,0-19.12,5.36-24.25,13.38c-0.72-0.3-1.44-0.63-2.16-0.88
	c-9.78-3.36-15.22-10.13-15.27-10.19l-2.65,2.08c0.24,0.31,6.06,7.6,16.83,11.3c0.47,0.16,1.04,0.38,1.66,0.63
	c-1.85,3.8-2.97,8.01-2.97,12.51c0,6.55,2.28,12.52,5.97,17.36c-4.45,17.57-2.97,25.82,5.44,38.08c-5.49,5.47-10.4,8.19-10.51,8.25
	l0.79,3.18h18.33c1.3,1.63,2.65,3.32,4.1,5.13l3.38,4.21h2.64l3.39-4.22c1.46-1.81,2.8-3.5,4.1-5.12h18.33l0.78-3.19
	c-0.11-0.06-5.04-2.71-10.59-8.09c8.51-12.34,10.02-20.58,5.54-38.24c3.69-4.84,5.96-10.81,5.96-17.35c0-4.5-1.13-8.71-2.98-12.51
	c0.61-0.25,1.19-0.47,1.65-0.63C368.94,36.99,374.76,29.7,375,29.39z M330.67,28.38c8.84,0,16.63,4.54,21.19,11.4
	c-9.06,4.63-17.66,13.2-21.19,26.26c-3.53-13.05-12.13-21.62-21.19-26.26C314.04,32.92,321.83,28.38,330.67,28.38z M341.18,80.59
	c0.86,7.34-1.99,11-10.06,21.05l-0.45,0.56l-0.46-0.57c-8.07-10.04-10.92-13.7-10.05-21.04c3.26,1.29,6.79,2.05,10.51,2.05
	C334.38,82.64,337.92,81.88,341.18,80.59z M305.22,53.82c0-4,1.01-7.74,2.66-11.11c8.12,4.14,21,14.2,21.08,36.38
	C315.74,78.2,305.22,67.27,305.22,53.82z M309.12,117.31c1.75-1.31,3.88-3.16,6.08-5.3c1.22,1.68,2.54,3.42,4.01,5.3H309.12z
	 M352.12,117.31c-3.37,0-7.43,0-9.98,0c1.42-1.82,2.7-3.52,3.9-5.15C348.24,114.26,350.36,116.02,352.12,117.31z M332.74,123.7
	l-2.07,2.58l-2.07-2.58c-18.06-22.48-22.93-28.62-18.09-49.34c1.9,1.87,4.13,3.36,6.49,4.65c-1.48,9.61,1.84,13.83,10.59,24.72
	l1.77,2.21h2.64l1.76-2.2c8.75-10.9,12.07-15.12,10.59-24.73c2.36-1.29,4.58-2.79,6.49-4.66C355.67,95.08,350.8,101.21,332.74,123.7
	z M332.36,79.09c0.08-22.18,12.97-32.25,21.09-36.38c1.65,3.37,2.66,7.11,2.66,11.11C356.11,67.27,345.59,78.2,332.36,79.09z
	 M44.1,64.49c0,5.67-3.71,9.11-9.04,9.11c-5.4,0-9.04-3.38-9.04-9.11V59.9h5.67v4.59c0,2.36,1.15,3.85,3.37,3.85
	c2.09,0,3.38-1.49,3.38-3.85v-5.6c0-9.38-12.42-8.17-12.42-19.78v-4.99c0-5.74,3.65-9.11,9.04-9.11c5.33,0,9.04,3.38,9.04,9.11v4.39
	h-5.67v-4.39c0-2.43-1.35-3.85-3.38-3.85c-2.09,0-3.37,1.42-3.37,3.85v4.99c0,8.44,12.42,7.09,12.42,19.78V64.49z M65.16,72.92
	V55.04h-6.75v17.89h-5.67V33.91c0-5.6,3.85-8.91,9.04-8.91c5.2,0,9.05,3.31,9.05,8.91v39.01H65.16z M58.41,49.77h6.75V33.91
	c0-2.23-1.35-3.65-3.38-3.65c-2.02,0-3.37,1.42-3.37,3.65V49.77z M98.23,59.9v4.79c0,5.6-3.85,8.91-9.04,8.91
	c-5.2,0-9.04-3.31-9.04-8.91V33.91c0-5.6,3.85-8.91,9.04-8.91c5.2,0,9.04,3.31,9.04,8.91v4.59h-5.67v-4.59
	c0-2.23-1.35-3.65-3.37-3.65s-3.38,1.42-3.38,3.65v30.78c0,2.23,1.35,3.65,3.38,3.65s3.37-1.42,3.37-3.65V59.9H98.23z M124.42,72.92
	h-5.67V51.93H112v20.99h-5.67V25.67H112v20.99h6.75V25.67h5.67V72.92z M131.44,25.67h17.82v5.27h-6.07v41.98h-5.67V30.94h-6.07
	V25.67z M156.28,25.67h5.67v41.98h8.77v5.26h-14.44V25.67z M192.25,25.67v5.27h-8.98v15.73h8.03v5.26h-8.03v15.73h8.98v5.26H177.6
	V25.67H192.25z M218.17,42.95c0,3.17-1.69,5.54-3.78,6.34c2.09,0.68,3.78,3.44,3.78,6.21v8.44c0,5.53-3.65,8.98-9.05,8.98h-9.04
	V25.67h9.04c5.4,0,9.05,3.44,9.05,8.84V42.95z M209.33,46.67c1.89,0,3.17-1.49,3.17-3.71v-8.44c0-2.16-1.35-3.58-3.38-3.58h-3.37
	v15.73H209.33z M205.75,67.66h3.37c2.02,0,3.38-1.42,3.38-3.71v-8.44c0-2.02-1.28-3.58-3.24-3.58h-3.51V67.66z M241.86,25.67v5.27
	h-8.98v15.73h8.03v5.26h-8.03v15.73h8.98v5.26h-14.65V25.67H241.86z M262.11,72.92V33.91c0-2.23-1.35-3.65-3.38-3.65
	c-2.02,0-3.37,1.42-3.37,3.65v39.01h-5.67V33.91c0-5.6,3.85-8.91,9.04-8.91c5.2,0,9.05,3.31,9.05,8.91v39.01H262.11z M25,82.77
	h17.82v5.27h-6.07v41.98h-5.67V88.03H25V82.77z M63.74,82.77v5.27h-8.98v15.73h8.03v5.27h-8.03v15.73h8.98v5.26H49.1V82.77H63.74z
	 M88.92,116.99v4.79c0,5.6-3.85,8.91-9.05,8.91c-5.2,0-9.04-3.31-9.04-8.91V91c0-5.6,3.85-8.91,9.04-8.91c5.2,0,9.05,3.31,9.05,8.91
	v4.59h-5.67V91c0-2.23-1.35-3.65-3.38-3.65c-2.02,0-3.37,1.42-3.37,3.65v30.78c0,2.23,1.35,3.65,3.37,3.65
	c2.02,0,3.38-1.42,3.38-3.65v-4.79H88.92z M114.36,130.01h-5.67v-20.99h-6.75v20.99h-5.67V82.77h5.67v20.99h6.75V82.77h5.67V130.01z
	 M135.35,130.01V91c0-2.23-1.35-3.65-3.38-3.65c-2.02,0-3.37,1.42-3.37,3.65v39.01h-5.67V91c0-5.6,3.85-8.91,9.04-8.91
	c5.2,0,9.05,3.31,9.05,8.91v39.01H135.35z M167.68,121.78c0,5.6-3.85,8.91-9.04,8.91c-5.2,0-9.04-3.31-9.04-8.91V91
	c0-5.6,3.85-8.91,9.04-8.91c5.2,0,9.04,3.31,9.04,8.91V121.78z M158.64,87.36c-2.02,0-3.38,1.42-3.38,3.65v30.78
	c0,2.23,1.35,3.65,3.38,3.65c2.02,0,3.37-1.42,3.37-3.65V91C162.01,88.77,160.66,87.36,158.64,87.36z M176.25,82.77h5.67v41.98h8.77
	v5.26h-14.44V82.77z M214.93,121.78c0,5.6-3.85,8.91-9.05,8.91c-5.2,0-9.04-3.31-9.04-8.91V91c0-5.6,3.85-8.91,9.04-8.91
	c5.2,0,9.05,3.31,9.05,8.91V121.78z M205.88,87.36c-2.02,0-3.37,1.42-3.37,3.65v30.78c0,2.23,1.35,3.65,3.37,3.65
	c2.02,0,3.38-1.42,3.38-3.65V91C209.26,88.77,207.91,87.36,205.88,87.36z M232.54,103.76h9.05v18.02c0,5.6-3.85,8.91-9.05,8.91
	c-5.2,0-9.04-3.31-9.04-8.91V91c0-5.6,3.85-8.91,9.04-8.91c5.2,0,9.05,3.31,9.05,8.91v4.59h-5.67V91c0-2.23-1.35-3.65-3.38-3.65
	c-2.02,0-3.37,1.42-3.37,3.65v30.78c0,2.23,1.35,3.65,3.37,3.65c2.02,0,3.38-1.42,3.38-3.65v-12.76h-3.38V103.76z M255.83,130.01
	V112.4c0-2.23-6.21-8.23-6.21-15.66V82.77h5.67v13.97c0,3.44,1.42,6.48,3.37,9.45c1.89-2.97,3.38-5.8,3.38-9.45V82.77h5.67v13.97
	c0,7.22-6.21,13.43-6.21,15.66v17.62H255.83z"/>
</svg>
